HIERARCHY
ROOT base
{
	OFFSET 0.0 0.0 0.0
	CHANNELS 6 Xposition Yposition Zposition Zrotation Yrotation Xrotation
	JOINT root
	{
		OFFSET 0 0 0
		CHANNELS 6 Xposition Yposition Zposition Zrotation Yrotation Xrotation
		JOINT chest
		{
			OFFSET 0 4.72302 0
			CHANNELS 3 Zrotation Yrotation Xrotation
			JOINT neck
			{
				OFFSET 0 4.47788 0
				CHANNELS 3 Zrotation Yrotation Xrotation
				End Site
				{
					OFFSET 0.0 0.0 0.0
				}
			}
			JOINT right_shoulder
			{
				OFFSET -0.481 4.87 3.6622
				CHANNELS 3 Zrotation Yrotation Xrotation
				JOINT right_elbow
				{
					OFFSET 0 -5.49576 0
					CHANNELS 3 Zrotation Yrotation Xrotation
					JOINT right_wrist
					{
						OFFSET 0 -5.17894 0
						CHANNELS 3 Zrotation Yrotation Xrotation
						End Site
						{
							OFFSET 0.0 0.0 0.0
						}
					}
				}
			}
			JOINT left_shoulder
			{
				OFFSET -0.481 4.87 -3.6622
				CHANNELS 3 Zrotation Yrotation Xrotation
				JOINT left_elbow
				{
					OFFSET 0 -5.49576 0
					CHANNELS 3 Zrotation Yrotation Xrotation
					JOINT left_wrist
					{
						OFFSET 0 -5.17894 0
						CHANNELS 3 Zrotation Yrotation Xrotation
						End Site
						{
							OFFSET 0.0 0.0 0.0
						}
					}
				}
			}
		}
		JOINT right_hip
		{
			OFFSET 0 0 1.69774
			CHANNELS 3 Zrotation Yrotation Xrotation
			JOINT right_knee
			{
				OFFSET 0 -8.43092 0
				CHANNELS 3 Zrotation Yrotation Xrotation
				JOINT right_ankle
				{
					OFFSET 0 -8.1974 0
					CHANNELS 3 Zrotation Yrotation Xrotation
					End Site
					{
						OFFSET 0.0 0.0 0.0
					}
				}
			}
		}
		JOINT left_hip
		{
			OFFSET 0 0 -1.69774
			CHANNELS 3 Zrotation Yrotation Xrotation
			JOINT left_knee
			{
				OFFSET 0 -8.43092 0
				CHANNELS 3 Zrotation Yrotation Xrotation
				JOINT left_ankle
				{
					OFFSET 0 -8.1974 0
					CHANNELS 3 Zrotation Yrotation Xrotation
					End Site
					{
						OFFSET 0.0 0.0 0.0
					}
				}
			}
		}
	}
	JOINT red_arrow
	{
		OFFSET 0 0 0
		CHANNELS 3 Zrotation Yrotation Xrotation
		End Site
		{
			OFFSET 0.0 0.0 0.0
		}
	}
	JOINT blue_arrow
	{
		OFFSET 0 0 0
		CHANNELS 3 Zrotation Yrotation Xrotation
		End Site
		{
			OFFSET 0.0 0.0 0.0
		}
	}
}
MOTION
Frames: 13
Frame Time: 0.0333333333333333
33.5881630375981 0 0.0843135073781013 0 -6.20083680842242 0 0 17.4681391000748 0 -6.44032690575501 -20.082388726037 3.81403090248929 -2.23514377169371 2.72649789141336 -1.66735048438679 5.62618521461771 0.919442749766962 0.844188147644719 4.60577947601625 22.3559318919171 -26.2836095300241 37.6723659898797 0 0 0 0 0 -7.40912706941319 24.2052024032893 19.8139724445317 -0.000683563781335089 0 0 0 0 0 -3.04612296469014 -11.5709791179669 1.69159199461295 0.00682683785832222 0 0 7.68414427449995 39.8776241457688 -2.0565729581821 50.2415102992888 -0.842206707010416 7.7036871800813 -48.8494173212828 0 0 15.5628563759825 5.14506494135339 9.97486040570919 0 0 0 0 0 0
34.2148371964693 0 0.266350048780441 0 -7.23761877447358 0 0 17.4139799952507 0 -6.55651037232331 -19.5798484599326 3.60362812580432 -2.59577347094928 3.14211511597639 -2.25362971106536 6.22374536144535 1.09581668935645 0.629753147737017 4.4048343714967 23.5100404355086 -27.0161384108988 44.7430563658524 0 0 0 0 0 -8.49840770707186 25.459247378193 19.4237678097975 -0.0269783150741514 0 0 0 0 0 -5.120907711998 -13.5823419574277 1.54858126218428 0.000759697159850049 0 0 9.15566114168734 41.6134704328033 -1.60392196654474 49.5942237977015 0.207818965519777 7.78708292007358 -36.5373524743637 0 0 16.2036596926601 5.55411448217418 9.91074938017817 0 0 0 0 0 0
34.9022917717695 0 0.449118319153786 0 -8.21280797093544 0 0 17.3880445599556 0 -6.33762240244368 -18.4230266714332 3.57540888699789 -3.09861826273662 2.78675924756748 -2.72475474759486 6.21630339967729 1.15002962979282 0.517408361431595 4.48436227002011 23.6976522618089 -26.8524665189643 52.3089388717455 0 0 0 0 0 -8.84399009933743 25.6266284091663 18.1284114402312 -6.44929204802567E-06 0 0 0 0 0 -7.52408621407399 -15.3411026056202 1.04397811042842 0.000129800040160752 0 0 9.29066665045756 42.6254721506735 -2.07196460834933 46.9931098333338 0.530763513857639 6.96303824510538 -27.5272606194172 0 0 14.3007280625634 5.38964058274165 8.53573207174423 0 0 0 0 0 0
35.6109109178186 0 0.636187040805817 0 -9.09460751522294 0 0 17.38711373806 0 -6.14159303075711 -16.6633767010535 3.65577095627406 -4.06661847744929 1.92976199971127 -3.17622278332445 5.64586246970509 1.09757347218448 0.494867859866081 4.9365437530719 23.3108325241369 -26.1384553595784 58.559576245399 0 0 0 0 0 -8.71938028253867 25.8966538141123 17.0654527258601 -4.24655651294532E-06 0 0 0 0 0 -9.89605342614607 -16.5761765987889 0.560565901816213 0.000172074628706246 0 0 7.65789448322283 42.6311141695282 -3.8923091292412 43.4322880250111 0.533896603715079 5.56759607435277 -21.1960867777128 0 0 11.1579185379171 4.66915404652633 6.64328293744969 0 0 0 0 0 0
36.3245305657387 0 0.824714508652687 0 -9.86786377599925 0 0 17.3953053832054 0 -6.3116144548881 -14.606636374075 3.74438532017344 -5.10922383813192 1.08856385188554 -3.43261823147736 4.61804409806424 0.998450808320254 0.496469077481566 5.62856295405004 22.3053367501523 -24.9731820459396 62.3970633890573 0 0 0 0 0 -8.88737959922434 25.831249509844 15.9439818006837 -9.36760373667091E-07 0 0 0 0 0 -11.2173803769263 -16.7399328942995 0.196845066018546 -1.43519136491481 0 0 5.179310566868 40.9222706368958 -6.88458609500542 39.7733567475025 0.610581412417222 4.01390091202907 -16.8197933311889 0 0 7.81640682266695 3.64329237797628 4.74266267498692 0 0 0 0 0 0
37.0415227979422 0 1.02196864187717 0 -10.5258126254656 0 0 17.3832586407661 0 -6.82653385952238 -12.4151604666778 3.75208069238313 -6.17081897647629 0.551865417682817 -3.55043807536067 3.39744096878575 0.842218580333531 0.482529164016187 6.41476449526585 20.8977106490027 -23.554012128087 64.196592839113 0 0 0 0 0 -9.43910267202565 25.3707525569449 14.8773678174293 -1.4447556158357E-06 0 0 0 0 0 -11.015077731738 -15.6392675995282 -0.0495149055634051 -5.38047426160155 0 0 2.99717299455055 37.1855841158096 -10.3526893144483 36.6614791133116 0.872652507963511 2.5454638865345 -14.1215663731631 0 0 4.8822107237075 2.59270610829394 3.15053195378605 0 0 0 0 0 0
37.7876863673329 0 1.23415320813656 0 -11.0598588756429 0 0 17.3183955788612 0 -7.36049188813636 -10.0649822266794 3.66339399698944 -7.16775191343145 0.317599347842126 -3.50408336243085 2.19647011394839 0.614150819815677 0.37744734609478 7.42744927771738 19.4243930414301 -22.0629025940562 64.3994904385974 0 0 0 0 0 -10.1583655988996 23.9691209601969 13.5682715684056 0.0318585135840786 0 0 0 0 0 -9.86515131762972 -13.8539640796894 -0.0554925769399452 -11.3756074918963 0 0 1.04769902521313 32.0933007713599 -13.8563660217572 34.1483894877372 1.20149364579333 1.13646633492525 -12.9029496346588 0 0 2.49103053536736 1.66355911199946 1.91827883836716 0 0 0 0 0 0
38.5984869077802 0 1.46904148161411 0 -11.468991353398 0 0 17.1694436430931 0 -7.51634010137345 -7.70753018043787 3.56216661434014 -8.00879595412277 0.267404289044011 -3.37882833131772 1.16571729364693 0.456480313201453 0.236176503496282 8.59987870982439 17.9580707483439 -20.3470038569033 63.5671977372855 0 0 0 0 0 -10.968591999393 21.8276026250121 11.8085147233313 2.24451093839679 0 0 0 0 0 -8.47168129971125 -12.0629040718739 0.20899221719956 -18.8466878258833 0 0 -1.3794512239822 26.184223391924 -17.3552163420498 31.6646610302741 1.48095695594093 -0.152311316841226 -12.7406079909187 0 0 0.419484431236208 0.839784134273885 0.943515655260189 0 0 0 0 0 0
39.4715992927551 0 1.71263802945614 0 -11.7514342377721 0 0 16.9095947504044 0 -7.53131928457785 -5.32038750374483 3.62993352127448 -7.95539836477384 0.188906270916509 -3.14638595260047 0.0390153591068973 0.360151619025206 0.078980785874848 9.68178712455734 16.5085032486461 -18.3835528879799 61.7759874576388 0 0 0 0 0 -11.1719917549643 19.1136720192815 9.82316064197706 7.04994709146333 0 0 0 0 0 -6.67881265729592 -10.3017983704524 0.536787254602277 -27.4201239796436 0 0 -5.89604538448115 20.9437429249451 -22.5424232914005 29.1958745248614 1.31897004843149 -1.33160771376057 -12.6267752044376 0 0 -3.90298170621794 -0.361901031007026 -1.32404162821013 0 0 0 0 0 0
40.2607751712203 0 1.84916138797998 0 -11.785514171803 0 0 16.8510780692101 0 -7.53008528302377 -0.64193513536229 5.37777589325766 -8.14228664431556 -1.3766070347226 -3.76447826782048 -1.99794437012998 0.228882221051935 -0.23513000560339 10.9611408378964 15.9022280894036 -17.5074896455558 56.4250191863649 0 0 0 0 0 -8.47875003667546 14.3450288761235 7.70954151728962 11.5695976709294 0 0 0 0 0 -4.07825184317435 -9.7539656176235 -0.11572994882322 -34.38320643279 0 0 -17.0196049674174 14.2247921857465 -24.159584103167 29.0550385893122 0.773840643714276 -5.07797675642122 -16.1021026664134 0 0 -5.34335316535693 -2.95267969611903 -0.237242050687204 0 0 0 0 0 0
41.1430603057146 0 2.09827500879765 0 -11.7267650190411 0 0 17.0043570637703 0 -6.09064749175507 1.10993465155125 6.35915837349951 -7.40225021485831 -1.54923424745398 -3.37980379728695 -3.27802632389617 0.197593787195618 -0.254125028758619 9.79602665517846 12.1727483055567 -13.8505123000174 51.3808800880809 0 0 0 0 0 -7.55522723872281 11.8483567658526 5.8995611566259 13.8338156260723 0 0 0 0 0 -1.23889842914929 -6.30430086731275 -0.081679364359253 -43.8186892994341 0 0 -26.3043145373419 13.6472142546452 -16.4250995577506 24.482509894859 0.449504191178319 -6.53995966243576 -15.8607767151112 0 0 -2.409979738764 -4.28960659709613 -0.0915038385165091 0 0 0 0 0 0
42.0048799514771 0 2.39663274288178 0 -11.6358521701257 0 0 17.145523250103 0 -4.58946188565062 1.72180893342907 6.74619082239468 -5.21050638152511 -1.06550735050938 -2.4650035191237 -2.74689480629696 0.172064409598257 -0.116488257851647 7.98600338194581 9.30604820215068 -11.0852420574661 44.3090319950439 0 0 0 0 0 -3.79799216263572 5.80337977285126 4.54879462608523 18.8263133715892 0 0 0 0 0 2.57652212625624 -2.48543633619538 0.337576201428888 -53.6116506068583 0 0 -27.7593188242348 12.9929540717206 -11.0646104604966 19.4883572867268 0.260532944280172 -6.70831862208786 -15.0726838754657 0 0 0.316550446370606 -5.29170552448848 -0.310852620074129 0 0 0 0 0 0
42.8161974668503 0 2.71830770373344 0 -11.5268101425665 0 0 17.2557657957077 0 -2.90553028137245 2.06913747938097 7.1440217444412 -3.95199501355239 -1.019903915854 -2.05801113994871 -1.88862704289747 0.115796601527209 0.0407536138634363 6.52978509293881 7.15157250869315 -8.99605323663272 36.9936056958259 0 0 0 0 0 1.53578276829773 0.16311716878215 4.51904144624836 25.9293873819642 0 0 0 0 0 5.43588678389028 -0.492068341074406 -0.0571249881300097 -60.6549758299213 0 0 -24.1418689012329 10.8040508158446 -7.27217021910487 13.894514269665 -0.201631894027162 -6.62197117262582 -13.053648367185 0 0 2.28647149329672 -5.94193344143861 -0.777981951315097 0 0 0 0 0 0
